<?xml version="1.0" encoding="UTF-8" standalone="no"?>
<!-- Created with Inkscape (http://www.inkscape.org/) -->

<svg
   width="800"
   height="800"
   viewBox="0 0 211.66667 211.66666"
   version="1.1"
   id="svg5"
   xml:space="preserve"
   xmlns="http://www.w3.org/2000/svg"
   xmlns:svg="http://www.w3.org/2000/svg"><g
     id="layer3"
     style="display:inline"><rect
       style="opacity:1;fill:#ffffff;fill-opacity:1;stroke:none;stroke-width:11.9235;stroke-linecap:round;stroke-linejoin:miter;stroke-dasharray:none;stroke-opacity:1;paint-order:markers fill stroke"
       id="rect2679"
       width="14.443995"
       height="132.0522"
       x="7.7953486"
       y="68.234863"
       transform="matrix(1,0,0.47106277,0.88209969,0,0)" /><rect
       style="display:inline;fill:#ffffff;fill-opacity:1;stroke:none;stroke-width:10.1496;stroke-linecap:round;stroke-linejoin:miter;stroke-dasharray:none;stroke-opacity:1;paint-order:markers fill stroke"
       id="rect2679-0"
       width="14.152046"
       height="97.656212"
       x="122.00631"
       y="78.745865"
       ry="0" /><circle
       style="opacity:1;fill:#ffffff;fill-opacity:1;stroke:none;stroke-width:16.0639;stroke-linecap:round;stroke-linejoin:miter;stroke-dasharray:none;stroke-opacity:1;paint-order:markers fill stroke"
       id="path3073"
       cx="159.33777"
       cy="119.61472"
       r="8.6429644" /><path
       style="opacity:1;fill:#000000;fill-opacity:1;stroke:none;stroke-width:11.4885;stroke-linecap:round;stroke-linejoin:miter;stroke-dasharray:none;stroke-opacity:1;paint-order:markers fill stroke"
       id="path3245"
       d="m 122.00592,78.878311 a 7.0764642,7.1998949 0 0 1 7.07646,-7.199895 7.0764642,7.1998949 0 0 1 7.07647,7.199895 h -7.07647 z" /><path
       style="opacity:1;fill:#ffffff;fill-opacity:1;stroke:none;stroke-width:12.1498;stroke-linecap:round;stroke-linejoin:miter;stroke-dasharray:none;stroke-opacity:1;paint-order:markers fill stroke"
       d="m 122.79323,71.019876 c 0.34444,-0.770672 1.03342,-2.312274 2.75409,-3.971823 1.72068,-1.659548 4.47268,-3.436647 7.48528,-4.736354 3.0126,-1.299707 6.28535,-2.121941 9.66683,-2.632883 3.38148,-0.510943 6.87134,-0.710624 10.36192,-0.373992 3.49058,0.336632 6.99416,1.212492 10.2395,2.912745 3.24534,1.700253 6.23863,4.226026 8.46645,7.747612 2.22782,3.521586 3.6904,8.038518 3.22377,11.271883 -0.46663,3.233364 -2.8623,5.183489 -5.09884,6.07059 -2.23654,0.887101 -4.31429,0.711006 -6.34057,-0.214285 -2.02629,-0.925292 -4.00093,-2.600111 -4.93209,-4.26609 -0.93116,-1.665979 -0.81811,-3.322859 -0.44572,-5.470208 0.37238,-2.147349 1.00413,-4.784833 1.23763,-6.993336 0.2335,-2.208504 0.0686,-3.988116 -0.69652,-5.579616 -0.76512,-1.591501 -2.13085,-2.994758 -4.07144,-3.840275 -1.94058,-0.845517 -4.45598,-1.13278 -6.66869,-1.117584 -2.21271,0.0152 -4.12252,0.332985 -6.05589,1.381739 -1.93338,1.048755 -3.88978,2.828351 -4.80511,6.211454 -0.91534,3.383102 -0.78954,8.368797 -1.02216,12.317319 -0.23262,3.948521 -0.82355,6.859568 -3.14085,8.054276 -2.3173,1.194708 -6.36161,0.67335 -8.30773,-0.06924 -1.94611,-0.742585 -1.79329,-1.706667 -1.78075,-2.622179 0.0125,-0.915512 -0.11538,-1.782397 -0.24713,-2.337624 -0.13174,-0.555227 -0.26764,-0.798937 -0.3371,-1.165138 -0.0695,-0.366201 -0.0721,-0.854689 -0.11622,-1.310172 -0.0441,-0.455483 -0.12973,-0.877931 -0.16716,-1.770758 -0.0374,-0.892826 -0.0265,-2.255865 0.0573,-3.455087 0.0837,-1.199223 0.24038,-2.234548 0.31872,-2.752427 0.0784,-0.517878 0.0781,-0.517878 0.42252,-1.288551 z"
       id="path3303" /><circle
       style="display:inline;fill:#ffffff;fill-opacity:1;stroke:none;stroke-width:16.0639;stroke-linecap:round;stroke-linejoin:miter;stroke-dasharray:none;stroke-opacity:1;paint-order:markers fill stroke"
       id="path3073-8"
       cx="166.48438"
       cy="79.782852"
       r="8.6429644" /><circle
       style="stroke:#ffffff;stroke-width:12.092;stroke-linecap:round;stroke-dasharray:none;paint-order:markers fill stroke;fill-rule:evenodd;fill:none;opacity:1;stroke-opacity:1"
       id="path734"
       cx="105.34666"
       cy="107.64709"
       r="95.27076" /></g></svg>
