<?xml version="1.0" encoding="UTF-8" standalone="no"?>
<!-- Created with Inkscape (http://www.inkscape.org/) -->

<svg
   width="800"
   height="800"
   viewBox="0 0 211.66667 211.66666"
   version="1.1"
   id="svg5"
   xml:space="preserve"
   inkscape:version="1.2.2 (732a01da63, 2022-12-09)"
   sodipodi:docname="logo.svg"
   xmlns:inkscape="http://www.inkscape.org/namespaces/inkscape"
   xmlns:sodipodi="http://sodipodi.sourceforge.net/DTD/sodipodi-0.dtd"
   xmlns:xlink="http://www.w3.org/1999/xlink"
   xmlns="http://www.w3.org/2000/svg"
   xmlns:svg="http://www.w3.org/2000/svg"><sodipodi:namedview
     id="namedview7"
     pagecolor="#ffffff"
     bordercolor="#000000"
     borderopacity="0.25"
     inkscape:showpageshadow="true"
     inkscape:pageopacity="0.0"
     inkscape:pagecheckerboard="0"
     inkscape:deskcolor="#d1d1d1"
     inkscape:document-units="px"
     showgrid="false"
     showguides="true"
     inkscape:zoom="0.33433265"
     inkscape:cx="1290.6307"
     inkscape:cy="450.15047"
     inkscape:window-width="1920"
     inkscape:window-height="991"
     inkscape:window-x="-9"
     inkscape:window-y="-9"
     inkscape:window-maximized="1"
     inkscape:current-layer="layer3" /><defs
     id="defs2"><inkscape:path-effect
       effect="bspline"
       id="path-effect3305"
       is_visible="true"
       lpeversion="1"
       weight="33.333333"
       steps="2"
       helper_size="0"
       apply_no_weight="true"
       apply_with_weight="true"
       only_selected="false" /><linearGradient
       id="linearGradient1411"
       inkscape:swatch="solid"><stop
         style="stop-color:#000000;stop-opacity:1;"
         offset="0"
         id="stop1409" /></linearGradient><linearGradient
       id="linearGradient1403"
       inkscape:swatch="gradient"><stop
         style="stop-color:#000080;stop-opacity:1;"
         offset="0"
         id="stop1399" /><stop
         style="stop-color:#000080;stop-opacity:0;"
         offset="1"
         id="stop1401" /></linearGradient></defs><g
     inkscape:label="Слой 1"
     inkscape:groupmode="layer"
     id="layer1"
     style="display:none"
     transform="translate(-0.71566265,-6.4409639)"
     sodipodi:insensitive="true"><image
       width="270.93332"
       height="270.93332"
       preserveAspectRatio="none"
       xlink:href="referense/logo%20VF/%D0%9D%D0%BE%D0%B2%D1%8B%D0%B9%D0%A5%D0%BE%D0%BB%D1%81%D1%82.jpg"
       id="image140"
       x="13.451513"
       y="-21.870314" /></g><g
     inkscape:groupmode="layer"
     id="layer3"
     inkscape:label="Layer 1"
     style="display:inline"><rect
       style="opacity:1;fill:#000000;fill-opacity:1;stroke:none;stroke-width:11.9235;stroke-linecap:round;stroke-linejoin:miter;stroke-dasharray:none;stroke-opacity:1;paint-order:markers fill stroke"
       id="rect2679"
       width="14.443995"
       height="132.0522"
       x="7.7953486"
       y="68.234863"
       transform="matrix(1,0,0.47106277,0.88209969,0,0)" /><rect
       style="display:inline;fill:#000000;fill-opacity:1;stroke:none;stroke-width:10.1496;stroke-linecap:round;stroke-linejoin:miter;stroke-dasharray:none;stroke-opacity:1;paint-order:markers fill stroke"
       id="rect2679-0"
       width="14.152046"
       height="97.656212"
       x="122.00631"
       y="78.745865"
       ry="0" /><circle
       style="opacity:1;fill:#000000;fill-opacity:1;stroke:none;stroke-width:16.0639;stroke-linecap:round;stroke-linejoin:miter;stroke-dasharray:none;stroke-opacity:1;paint-order:markers fill stroke"
       id="path3073"
       cx="159.33777"
       cy="119.61472"
       r="8.6429644" /><path
       style="opacity:1;fill:#000000;fill-opacity:1;stroke:none;stroke-width:11.4885;stroke-linecap:round;stroke-linejoin:miter;stroke-dasharray:none;stroke-opacity:1;paint-order:markers fill stroke"
       id="path3245"
       sodipodi:type="arc"
       sodipodi:cx="129.08238"
       sodipodi:cy="78.878311"
       sodipodi:rx="7.0764642"
       sodipodi:ry="7.1998949"
       sodipodi:start="3.1415927"
       sodipodi:end="0"
       sodipodi:arc-type="slice"
       d="m 122.00592,78.878311 a 7.0764642,7.1998949 0 0 1 7.07646,-7.199895 7.0764642,7.1998949 0 0 1 7.07647,7.199895 h -7.07647 z" /><path
       style="opacity:1;fill:#000000;fill-opacity:1;stroke:none;stroke-width:12.1498;stroke-linecap:round;stroke-linejoin:miter;stroke-dasharray:none;stroke-opacity:1;paint-order:markers fill stroke"
       d="m 122.79323,71.019876 c 0.34444,-0.770672 1.03342,-2.312274 2.75409,-3.971823 1.72068,-1.659548 4.47268,-3.436647 7.48528,-4.736354 3.0126,-1.299707 6.28535,-2.121941 9.66683,-2.632883 3.38148,-0.510943 6.87134,-0.710624 10.36192,-0.373992 3.49058,0.336632 6.99416,1.212492 10.2395,2.912745 3.24534,1.700253 6.23863,4.226026 8.46645,7.747612 2.22782,3.521586 3.6904,8.038518 3.22377,11.271883 -0.46663,3.233364 -2.8623,5.183489 -5.09884,6.07059 -2.23654,0.887101 -4.31429,0.711006 -6.34057,-0.214285 -2.02629,-0.925292 -4.00093,-2.600111 -4.93209,-4.26609 -0.93116,-1.665979 -0.81811,-3.322859 -0.44572,-5.470208 0.37238,-2.147349 1.00413,-4.784833 1.23763,-6.993336 0.2335,-2.208504 0.0686,-3.988116 -0.69652,-5.579616 -0.76512,-1.591501 -2.13085,-2.994758 -4.07144,-3.840275 -1.94058,-0.845517 -4.45598,-1.13278 -6.66869,-1.117584 -2.21271,0.0152 -4.12252,0.332985 -6.05589,1.381739 -1.93338,1.048755 -3.88978,2.828351 -4.80511,6.211454 -0.91534,3.383102 -0.78954,8.368797 -1.02216,12.317319 -0.23262,3.948521 -0.82355,6.859568 -3.14085,8.054276 -2.3173,1.194708 -6.36161,0.67335 -8.30773,-0.06924 -1.94611,-0.742585 -1.79329,-1.706667 -1.78075,-2.622179 0.0125,-0.915512 -0.11538,-1.782397 -0.24713,-2.337624 -0.13174,-0.555227 -0.26764,-0.798937 -0.3371,-1.165138 -0.0695,-0.366201 -0.0721,-0.854689 -0.11622,-1.310172 -0.0441,-0.455483 -0.12973,-0.877931 -0.16716,-1.770758 -0.0374,-0.892826 -0.0265,-2.255865 0.0573,-3.455087 0.0837,-1.199223 0.24038,-2.234548 0.31872,-2.752427 0.0784,-0.517878 0.0781,-0.517878 0.42252,-1.288551 z"
       id="path3303"
       inkscape:path-effect="#path-effect3305"
       inkscape:original-d="m 122.4488,71.790549 c 0.68951,-1.541058 1.37851,-3.082652 2.06693,-4.624772 2.75267,-1.776649 5.50467,-3.553751 8.25618,-5.331412 3.27345,-0.821751 6.54619,-1.643991 9.81851,-2.466774 3.49052,-0.199175 6.98038,-0.398845 10.46971,-0.599052 3.49795,0.848321 6.99529,1.749131 10.49207,2.622916 2.99396,2.526404 5.98724,5.052183 8.98005,7.57748 1.46318,4.517732 2.92577,9.03466 4.38791,13.551339 -2.39524,1.950738 -4.79093,3.900848 -7.18723,5.850532 -2.07728,-0.175576 -4.15503,-0.35167 -6.23337,-0.528294 -1.97422,-1.674395 -3.94886,-3.349215 -5.92418,-5.024679 0.11367,-1.656489 0.22665,-3.313374 0.33917,-4.970898 0.63229,-2.637068 1.26403,-5.274553 1.89528,-7.912606 -0.16425,-1.779154 -0.32925,-3.558757 -0.49471,-5.338923 -1.36527,-1.402796 -2.731,-2.806059 -4.09731,-4.209877 -2.51492,-0.286746 -5.03032,-0.574008 -7.54626,-0.861796 -1.90933,0.318324 -3.81914,0.636109 -5.72954,0.953381 -1.95594,1.780197 -3.91233,3.559803 -5.86934,5.33892 0.12636,4.986507 0.25216,9.972202 0.37741,14.957667 -0.59041,2.911719 -1.18133,5.822766 -1.77281,8.73334 -4.04381,-0.520823 -8.08812,-1.042178 -12.13306,-1.564089 0.15337,-0.96363 0.30619,-1.927712 0.45851,-2.892475 -0.12737,-0.866425 -0.25532,-1.733305 -0.38376,-2.600711 -0.13523,-0.243132 -0.27121,-0.486796 -0.40764,-0.731026 -0.002,-0.488074 -0.004,-0.976565 -0.008,-1.465685 -0.085,-0.421945 -0.1707,-0.844381 -0.25694,-1.267386 0.0121,-1.362545 0.0224,-2.725589 0.0328,-4.089199 0.15699,-1.034773 0.31379,-2.070073 0.46988,-3.105921 z"
       sodipodi:nodetypes="cccccccccccccccccccscccccccc" /><circle
       style="display:inline;fill:#010000;fill-opacity:1;stroke:none;stroke-width:16.0639;stroke-linecap:round;stroke-linejoin:miter;stroke-dasharray:none;stroke-opacity:1;paint-order:markers fill stroke"
       id="path3073-8"
       cx="166.48438"
       cy="79.782852"
       r="8.6429644" /><circle
       style="fill:none;stroke:#000000;stroke-width:12.092;stroke-linecap:round;stroke-dasharray:none;paint-order:markers fill stroke"
       id="path734"
       cx="105.34666"
       cy="107.64709"
       r="95.27076" /></g></svg>
