<?xml version="1.0" encoding="UTF-8" standalone="no"?>
<!-- Created with Inkscape (http://www.inkscape.org/) -->

<svg
   width="800"
   height="400"
   viewBox="0 0 211.66667 105.83333"
   version="1.1"
   id="svg5"
   xml:space="preserve"
   sodipodi:docname="logo VF.svg"
   inkscape:version="1.2.2 (732a01da63, 2022-12-09)"
   xmlns:inkscape="http://www.inkscape.org/namespaces/inkscape"
   xmlns:sodipodi="http://sodipodi.sourceforge.net/DTD/sodipodi-0.dtd"
   xmlns:xlink="http://www.w3.org/1999/xlink"
   xmlns="http://www.w3.org/2000/svg"
   xmlns:svg="http://www.w3.org/2000/svg"><sodipodi:namedview
     id="namedview20"
     pagecolor="#ffffff"
     bordercolor="#000000"
     borderopacity="0.25"
     inkscape:showpageshadow="2"
     inkscape:pageopacity="0.0"
     inkscape:pagecheckerboard="0"
     inkscape:deskcolor="#d1d1d1"
     inkscape:document-units="px"
     showgrid="false"
     inkscape:zoom="0.64327296"
     inkscape:cx="221.52338"
     inkscape:cy="310.13273"
     inkscape:window-width="1920"
     inkscape:window-height="991"
     inkscape:window-x="-9"
     inkscape:window-y="-9"
     inkscape:window-maximized="1"
     inkscape:current-layer="svg5" /><defs
     id="defs2"><linearGradient
       id="linearGradient1411"><stop
         style="stop-color:#000000;stop-opacity:1;"
         offset="0"
         id="stop1409" /></linearGradient><linearGradient
       id="linearGradient1403"><stop
         style="stop-color:#000080;stop-opacity:1;"
         offset="0"
         id="stop1399" /><stop
         style="stop-color:#000080;stop-opacity:0;"
         offset="1"
         id="stop1401" /></linearGradient></defs><g
     id="layer1"
     style="display:none"
     transform="translate(-0.71566265,-6.4409639)"><image
       width="270.93332"
       height="270.93332"
       preserveAspectRatio="none"
       xlink:href="../referense/logo%20VF/%D0%9D%D0%BE%D0%B2%D1%8B%D0%B9%D0%A5%D0%BE%D0%BB%D1%81%D1%82.jpg"
       id="image140"
       x="13.451513"
       y="-21.870314" /></g><g
     id="layer3"
     style="display:inline"
     transform="matrix(1.3464312,0,0,1.3464312,-102.84283,-81.552586)"><path
       id="path1494"
       style="opacity:1;fill:#000000;fill-opacity:1;stroke:none;stroke-width:7.03206;stroke-linecap:round;stroke-linejoin:miter;stroke-dasharray:none;stroke-opacity:1;paint-order:markers fill stroke"
       d="M 117.83599,71.297973 77.156816,100.17063 117.83599,129.04329 V 120.6376 L 89.031026,100.19285 117.83599,79.748104 Z" /><path
       id="path1494-3"
       style="display:inline;fill:#000000;fill-opacity:1;stroke:none;stroke-width:7.03204;stroke-linecap:round;stroke-linejoin:miter;stroke-dasharray:none;stroke-opacity:1;paint-order:markers fill stroke"
       d="m 192.45644,71.298 40.679,28.87265 -40.679,28.87266 v -8.40569 l 28.80484,-20.44475 -28.80484,-20.444739 z" /><rect
       style="opacity:1;fill:#000000;fill-opacity:1;stroke:none;stroke-width:5.91639;stroke-linecap:round;stroke-linejoin:miter;stroke-dasharray:none;stroke-opacity:1;paint-order:markers fill stroke"
       id="rect2679"
       width="7.1670446"
       height="65.523705"
       x="83.267029"
       y="80.827591"
       transform="matrix(1,0,0.47106277,0.88209969,0,0)" /><rect
       style="display:inline;fill:#000000;fill-opacity:1;stroke:none;stroke-width:5.03617;stroke-linecap:round;stroke-linejoin:miter;stroke-dasharray:none;stroke-opacity:1;paint-order:markers fill stroke"
       id="rect2679-0"
       width="7.022181"
       height="48.45657"
       x="162.06369"
       y="80.505348"
       ry="0" /><circle
       style="opacity:1;fill:#000000;fill-opacity:1;stroke:none;stroke-width:7.97081;stroke-linecap:round;stroke-linejoin:miter;stroke-dasharray:none;stroke-opacity:1;paint-order:markers fill stroke"
       id="path3073"
       cx="180.58737"
       cy="100.78429"
       r="4.2885995" /><path
       style="opacity:1;fill:#000000;fill-opacity:1;stroke:none;stroke-width:5.70056;stroke-linecap:round;stroke-linejoin:miter;stroke-dasharray:none;stroke-opacity:1;paint-order:markers fill stroke"
       id="path3245"
       d="m 162.06349,80.571068 a 3.5113094,3.5725551 0 0 1 3.51131,-3.572555 3.5113094,3.5725551 0 0 1 3.51131,3.572555 h -3.51131 z" /><path
       style="opacity:1;fill:#000000;fill-opacity:1;stroke:none;stroke-width:6.02869;stroke-linecap:round;stroke-linejoin:miter;stroke-dasharray:none;stroke-opacity:1;paint-order:markers fill stroke"
       d="m 162.45417,76.671753 c 0.1709,-0.382404 0.51277,-1.147341 1.36656,-1.9708 0.85379,-0.82346 2.21932,-1.705248 3.71416,-2.350157 1.49484,-0.644909 3.11876,-1.052899 4.79664,-1.306426 1.67787,-0.253527 3.40952,-0.352608 5.14154,-0.185573 1.73201,0.167036 3.47046,0.601633 5.08079,1.445291 1.61032,0.843658 3.09558,2.096934 4.20101,3.844329 1.10544,1.747395 1.83116,3.988676 1.59962,5.593058 -0.23153,1.604382 -1.42026,2.572025 -2.53002,3.012199 -1.10976,0.440175 -2.14073,0.352798 -3.14616,-0.106328 -1.00543,-0.459126 -1.98524,-1.290165 -2.44728,-2.116815 -0.46204,-0.82665 -0.40594,-1.648786 -0.22117,-2.714291 0.18478,-1.065505 0.49825,-2.374213 0.61411,-3.470062 0.11586,-1.095849 0.034,-1.978885 -0.34561,-2.768579 -0.37965,-0.789695 -1.05732,-1.485985 -2.02023,-1.905527 -0.9629,-0.419542 -2.21103,-0.562081 -3.30897,-0.55454 -1.09794,0.0075 -2.04558,0.165225 -3.00491,0.685613 -0.95933,0.520387 -1.93009,1.403414 -2.38427,3.082094 -0.45419,1.67868 -0.39177,4.152559 -0.50719,6.111798 -0.11543,1.959238 -0.40864,3.403686 -1.55848,3.996495 -1.14983,0.592809 -3.1566,0.334113 -4.12225,-0.03435 -0.96566,-0.368468 -0.88983,-0.846841 -0.8836,-1.301114 0.006,-0.454273 -0.0573,-0.884417 -0.12263,-1.159918 -0.0654,-0.275501 -0.1328,-0.396428 -0.16727,-0.578136 -0.0345,-0.181708 -0.0358,-0.424093 -0.0577,-0.650104 -0.0219,-0.226011 -0.0644,-0.435624 -0.0829,-0.87864 -0.0186,-0.443017 -0.0131,-1.11935 0.0284,-1.714399 0.0416,-0.595049 0.11928,-1.108772 0.15815,-1.365741 0.0389,-0.256969 0.0388,-0.256969 0.20967,-0.639373 z"
       id="path3303" /><circle
       style="display:inline;fill:#010000;fill-opacity:1;stroke:none;stroke-width:7.97081;stroke-linecap:round;stroke-linejoin:miter;stroke-dasharray:none;stroke-opacity:1;paint-order:markers fill stroke"
       id="path3073-8"
       cx="184.13348"
       cy="81.019897"
       r="4.2885995" /></g></svg>
